# xmcd
#
# Track frame offsets:
# 150
# 30007
# 53947
# 79579
# 101092
# 124014
# 142107
# 155559
# 179322
# 201087
# 209771
# 234856
#
# Disc length: 3411 seconds
#
#
# Revision: 0
# Processed by: cddbd v1.4PL0 Copyright (c) Steve Scherf et al.
# Submitted via: FreeRIP 2.00 
#
DISCID=9f0d510c
DTITLE=Blues Traveler - Four
DYEAR=1900
DGENRE=Blues
TTITLE0=Run around
TTITLE1=Stand
TTITLE2=Look around
TTITLE3=Faileble
TTITLE4=The mountain win again
TTITLE5=Freedom
TTITLE6=Crash Burn
TTITLE7=Price to pay
TTITLE8=Hook
TTITLE9=The good, The bad and the ugly
TTITLE10=Just wait
TTITLE11=Brother John
EXTD=
EXTT0=
EXTT1=
EXTT2=
EXTT3=
EXTT4=
EXTT5=
EXTT6=
EXTT7=
EXTT8=
EXTT9=
EXTT10=
EXTT11=
PLAYORDER=
